<svg xmlns="http://www.w3.org/2000/svg" width="280" height="113" viewBox="0 0 280 113">
  <metadata><?xpacket begin="﻿" id="W5M0MpCehiHzreSzNTczkc9d"?>
<x:xmpmeta xmlns:x="adobe:ns:meta/" x:xmptk="Adobe XMP Core 5.6-c142 79.160924, 2017/07/13-01:06:39        ">
   <rdf:RDF xmlns:rdf="http://www.w3.org/1999/02/22-rdf-syntax-ns#">
      <rdf:Description rdf:about=""/>
   </rdf:RDF>
</x:xmpmeta>
                                                                                                    
                                                                                                    
                                                                                                    
                                                                                                    
                                                                                                    
                                                                                                    
                                                                                                    
                                                                                                    
                                                                                                    
                                                                                                    
                                                                                                    
                                                                                                    
                                                                                                    
                                                                                                    
                                                                                                    
                                                                                                    
                                                                                                    
                                                                                                    
                                                                                                    
                                                                                                    
                           
<?xpacket end="w"?></metadata>
<defs>
    <style>
      .cls-1 {
        fill-rule: evenodd;
      }
    </style>
  </defs>
  <path id="IOReno" class="cls-1" d="M33.977,102.94V49.581H22.609V102.94H33.977Zm12.659-6.772a26.393,26.393,0,0,0,8.867,5.679,29.9,29.9,0,0,0,11.172,2.07,29.064,29.064,0,0,0,14.316-3.512,25.339,25.339,0,0,0,9.941-9.831A28.4,28.4,0,0,0,94.527,76.28,28.337,28.337,0,0,0,90.933,62a25.321,25.321,0,0,0-9.941-9.812,29.127,29.127,0,0,0-14.316-3.5A29.962,29.962,0,0,0,55.5,50.748a26.406,26.406,0,0,0-8.867,5.67,25.562,25.562,0,0,0-5.762,8.748,30.622,30.622,0,0,0,0,22.237A25.607,25.607,0,0,0,46.636,96.168ZM54.9,63.651a15.011,15.011,0,0,1,11.777-4.969,14.982,14.982,0,0,1,11.719,4.969A18.211,18.211,0,0,1,82.847,76.28a18.3,18.3,0,0,1-4.453,12.629,14.927,14.927,0,0,1-11.719,5.008,14.971,14.971,0,0,1-11.758-5.008A18.3,18.3,0,0,1,50.464,76.28,18.259,18.259,0,0,1,54.9,63.651Zm55.764,39.289V83.995h8.321l10.469,18.945h13.125L130.506,82.628a14.826,14.826,0,0,0,4.278-1.777,17.081,17.081,0,0,0,3.73-3.125,13.9,13.9,0,0,0,2.734-4.746,18.387,18.387,0,0,0,1.016-6.211,16.582,16.582,0,0,0-4.9-12.383q-4.9-4.8-13.106-4.8H99.3V102.94h11.367Zm0-43.359h11.993a8.4,8.4,0,0,1,5.683,1.934,6.486,6.486,0,0,1,2.246,5.176,6.736,6.736,0,0,1-2.246,5.332,8.3,8.3,0,0,1-5.683,1.973H110.662V59.581Zm37.6,38.731a20.489,20.489,0,0,0,14.785,5.606,27.9,27.9,0,0,0,8.848-1.407,19.226,19.226,0,0,0,7.051-3.984l-4.531-6.719a12.579,12.579,0,0,1-4.707,2.754,16.739,16.739,0,0,1-5.528,1.035,11.5,11.5,0,0,1-7.656-2.461,9.693,9.693,0,0,1-3.477-6.211h28.711V84.542q0-9.453-5.332-15.332t-14-5.879a19.936,19.936,0,0,0-10.312,2.715,19.031,19.031,0,0,0-7.149,7.324,20.775,20.775,0,0,0-2.539,10.2Q142.423,92.706,148.263,98.311Zm5.489-21.328a10.309,10.309,0,0,1,1.718-2.617,7.746,7.746,0,0,1,2.891-1.973,10.562,10.562,0,0,1,4.062-.742,11.231,11.231,0,0,1,4.258.762,7.542,7.542,0,0,1,2.949,2.012,10.189,10.189,0,0,1,1.661,2.617,9,9,0,0,1,.7,2.852H152.97A9.349,9.349,0,0,1,153.752,76.983Zm42.307,25.957V76.846a12.273,12.273,0,0,1,3.75-3.184,10.132,10.132,0,0,1,5.039-1.27,7.62,7.62,0,0,1,5.293,1.68Q212,75.753,212,79.581V102.94h10.156V75.674q0-5.82-3.184-9.082t-9.394-3.262a18.013,18.013,0,0,0-13.516,5.938V64.307H185.9V102.94h10.156Zm39.956-1.836a22.437,22.437,0,0,0,21.755,0,18.5,18.5,0,0,0,7.108-7.4,21.584,21.584,0,0,0,2.4-10.137,21.354,21.354,0,0,0-2.4-10.1,18.445,18.445,0,0,0-7.108-7.344,22.578,22.578,0,0,0-21.755,0,18.483,18.483,0,0,0-7.089,7.344,21.354,21.354,0,0,0-2.395,10.1A21.584,21.584,0,0,0,228.926,93.7,18.535,18.535,0,0,0,236.015,101.1Zm3.627-25.488a8.836,8.836,0,0,1,7.221-3.223,8.936,8.936,0,0,1,7.28,3.223,12.072,12.072,0,0,1,2.662,7.949,12.266,12.266,0,0,1-2.662,8.047,8.912,8.912,0,0,1-7.28,3.242,8.791,8.791,0,0,1-7.221-3.262A12.337,12.337,0,0,1,237,83.565,12.124,12.124,0,0,1,239.642,75.616Z"/>
  <path class="cls-1" d="M16,51l-6-6L52,9,94,45l-6,6L52,20Z"/>
  <path class="cls-1" d="M23,29V12H34v9l-9,8H23Z"/>
</svg>
